<svg width="92" height="49" viewBox="0 0 92 49" fill="none" xmlns="http://www.w3.org/2000/svg">
<g style="mix-blend-mode:hard-light" filter="url(#filter0_d_24_1410)">
<path d="M58.5031 21.2412H28.9414V37.5523H58.5031V21.2412Z" fill="white"/>
<path d="M43.7222 8.76855L58.923 21.7215H28.5215L43.7222 8.76855Z" fill="white"/>
<path d="M50.1888 21.2412H45.5698V26.0386H50.1888V21.2412Z" fill="#6BB8EF"/>
<path d="M50.1888 27.9575H45.5698V32.7549H50.1888V27.9575Z" fill="#6BB8EF"/>
<path d="M42.7987 21.2412H38.1797V26.0386H42.7987V21.2412Z" fill="#6BB8EF"/>
<path d="M38.1797 27.9575H42.7987V32.7549H38.1797V27.9575Z" fill="#6BB8EF"/>
<path d="M26.7217 32.4597C18.372 32.4597 8.56825 37.2007 4.51953 39.37C9.34257 37.9285 18.6341 35.5757 26.7217 36.0023C38.2467 36.6105 48.3748 42.2021 63.7414 39.545C79.1082 36.888 87.1407 25.0791 87.1407 25.0791C87.1407 25.0791 76.971 34.8214 62.6937 37.1833C48.4164 39.545 37.5483 32.4597 26.7217 32.4597Z" fill="#32655C"/>
<path d="M24.5287 35.4493C16.8972 35.4493 7.93677 38.4124 4.23633 39.7683C8.64448 38.8673 17.1367 37.3967 24.5287 37.6635C35.0622 38.0435 44.319 41.5382 58.3639 39.8777C72.4087 38.217 79.7504 30.8364 79.7504 30.8364C79.7504 30.8364 70.4554 36.9254 57.4063 38.4015C44.3572 39.8777 34.4239 35.4493 24.5287 35.4493Z" fill="#38E1CD"/>
<path d="M43.6843 4.65599L23.6177 22.144L24.8053 23.614L44.8719 6.12599L43.6843 4.65599Z" fill="#32655C"/>
<path d="M42.4708 6.11496L62.3486 23.4385L63.5363 21.9685L43.6584 4.64496L42.4708 6.11496Z" fill="#32655C"/>
<path d="M35.4081 10.6873L30.7891 14.5252V5.41016H35.4081V10.6873Z" fill="white"/>
<path d="M35.4082 1.09248C34.3195 1.83182 33.5605 3.97091 33.5605 3.97091C33.5605 3.97091 35.6684 4.1145 36.7939 3.49117C38.037 2.80269 39.1034 0.612747 39.1034 0.612747C39.1034 0.612747 36.6254 0.265887 35.4082 1.09248Z" fill="#38E1CD"/>
<path d="M32.6361 2.53174C32.8629 3.04206 32.6361 3.97095 32.6361 3.97095C32.6361 3.97095 31.6672 3.89571 31.2504 3.49122C30.707 2.96382 30.7885 1.57227 30.7885 1.57227C30.7885 1.57227 32.2981 1.771 32.6361 2.53174Z" fill="#13675D" fill-opacity="0.83"/>
</g>
<defs>
<filter id="filter0_d_24_1410" x="0.236328" y="0.540527" width="90.9043" height="47.7822" filterUnits="userSpaceOnUse" color-interpolation-filters="sRGB">
<feFlood flood-opacity="0" result="BackgroundImageFix"/>
<feColorMatrix in="SourceAlpha" type="matrix" values="0 0 0 0 0 0 0 0 0 0 0 0 0 0 0 0 0 0 127 0" result="hardAlpha"/>
<feOffset dy="4"/>
<feGaussianBlur stdDeviation="2"/>
<feComposite in2="hardAlpha" operator="out"/>
<feColorMatrix type="matrix" values="0 0 0 0 0 0 0 0 0 0 0 0 0 0 0 0 0 0 0.25 0"/>
<feBlend mode="normal" in2="BackgroundImageFix" result="effect1_dropShadow_24_1410"/>
<feBlend mode="normal" in="SourceGraphic" in2="effect1_dropShadow_24_1410" result="shape"/>
</filter>
</defs>
</svg>
