<svg width="650" height="243" viewBox="0 0 650 243" fill="none" xmlns="http://www.w3.org/2000/svg">
<path d="M103.782 202.536V222.962H115.92V188.238H86.7881L177.824 128.494L248.833 185.452L261.578 176.5L177.824 111.132L128.665 144.482L103.782 161.363L43.0906 202.536H103.782Z" fill="#35E3C3" fill-opacity="0.24"/>
<path d="M555.322 188.238V222.962H569.281V202.536H626.937L560.184 147.898L515.266 111.132L413.12 176.5L425.433 185.452L515.266 128.494L586.881 188.238H555.322Z" fill="#40E1C4" fill-opacity="0.35"/>
<path d="M0 222.962V240.324H219.094L338.655 154.026L452.754 240.324H650V222.962H569.281H555.322H477.031L425.433 185.452L413.12 176.5L338.655 122.366L261.578 176.5L248.833 185.452L195.425 222.962H115.92H103.782H0Z" fill="#44CCB4" fill-opacity="0.49"/>
<path d="M359.897 133.089L369.001 139.728L376.891 134.111L397.526 130.536V40.1533L359.897 0.323517V133.089Z" fill="#2D66D6" fill-opacity="0.58"/>
<path d="M277.965 49.8554L308.31 73.8554V134.111H302.241L277.965 128.494V49.8554Z" fill="#2D66D6" fill-opacity="0.58"/>
<path d="M425.433 88.1533V125.43L442.437 122.366V99.898L425.433 85.0895V88.1533Z" fill="#2D66D6" fill-opacity="0.58"/>
<path d="M356.256 128.494L338.655 116.238L312.558 134.111V40.1533L356.256 6.96181V128.494Z" fill="#A7FFEF"/>
<path d="M419.981 82.5363L401.167 97.8554V130.536L419.981 128.494V82.5363Z" fill="#A9FFF0"/>
<path d="M273.716 55.4725V128.494L248.833 122.366V77.4299L273.716 55.4725Z" fill="#98FFED"/>
<path d="M188.749 111.132L302.241 139.728L261.578 167.302L188.749 111.132Z" fill="#9AFFED"/>
<path d="M413.12 167.302L376.891 139.728L504.342 111.132L413.12 167.302Z" fill="#A2FFEE"/>
<path d="M560.184 130.536V147.898L586.881 167.302V130.536H560.184Z" fill="#1917A1" fill-opacity="0.64"/>
<path d="M128.665 144.482V125.43H103.782V161.363L128.665 144.482Z" fill="#0D2085" fill-opacity="0.58"/>
<path d="M163 163.673H175V176.158H163V163.673Z" fill="#2734AD" fill-opacity="0.87"/>
<path d="M179 163.673H191V176.158H179V163.673Z" fill="#2734AD" fill-opacity="0.87"/>
<path d="M163 178.239H175V190.724H163V178.239Z" fill="#2734AD" fill-opacity="0.87"/>
<path d="M179 178.239H191V190.724H179V178.239Z" fill="#2734AD" fill-opacity="0.86"/>
<path d="M506 169.915H518V182.401H506V169.915Z" fill="#2734AD" fill-opacity="0.87"/>
<path d="M520 169.915H532V182.401H520V169.915Z" fill="#2734AD" fill-opacity="0.87"/>
<path d="M506 186.562H518V199.048H506V186.562Z" fill="#2734AD" fill-opacity="0.87"/>
<path d="M520 186.562H532V199.048H520V186.562Z" fill="#2734AD" fill-opacity="0.87"/>
<path d="M340 202.169H358V220.897H340V202.169Z" fill="#2734AD" fill-opacity="0.87"/>
<path d="M319 202.169H337V220.897H319V202.169Z" fill="#2734AD" fill-opacity="0.87"/>
<path d="M340 224.018H358V242.746H340V224.018Z" fill="#2734AD" fill-opacity="0.87"/>
<path d="M105 114.772H129V122.055H105V114.772Z" fill="#2734AD" fill-opacity="0.67"/>
<path d="M319 224.018H337V242.746H319V224.018Z" fill="#2734AD" fill-opacity="0.87"/>
<path d="M561 122.055H585V129.338H561V122.055Z" fill="#2734AD" fill-opacity="0.67"/>
</svg>
