<svg width="89" height="47" viewBox="0 0 89 47" fill="none" xmlns="http://www.w3.org/2000/svg">
<g style="mix-blend-mode:hard-light" filter="url(#filter0_d_58_79)">
<path d="M53.8425 21.2757H24.512V38.0399H53.8425V21.2757Z" fill="#EEE4E4"/>
<path d="M39.177 8.45648L54.2588 21.7692H24.0951L39.177 8.45648Z" fill="#EAF6F7"/>
<path d="M45.5932 21.2757H41.0103V26.2063H45.5932V21.2757Z" fill="#6BB8EF"/>
<path d="M45.5932 28.1788H41.0103V33.1094H45.5932V28.1788Z" fill="#6BB8EF"/>
<path d="M38.2606 21.2757H33.6777V26.2063H38.2606V21.2757Z" fill="#6BB8EF"/>
<path d="M33.6777 28.1788H38.2606V33.1094H33.6777V28.1788Z" fill="#6BB8EF"/>
<path d="M22.3096 32.806C14.0252 32.806 4.2981 37.6788 0.281052 39.9083C5.06636 38.4268 14.2852 36.0086 22.3096 36.4471C33.7444 37.0721 43.7932 42.8191 59.0397 40.0882C74.2862 37.3574 82.256 25.2205 82.256 25.2205C82.256 25.2205 72.1657 35.2334 58.0002 37.6608C43.8346 40.0882 33.0514 32.806 22.3096 32.806Z" fill="#32655C"/>
<path d="M20.1336 35.8781C12.5618 35.8781 3.6715 38.9235 0 40.317C4.37367 39.3911 12.7995 37.8796 20.1336 38.1538C30.5848 38.5444 39.7692 42.1361 53.7042 40.4295C67.6391 38.7227 74.9233 31.1371 74.9233 31.1371C74.9233 31.1371 65.7011 37.3952 52.754 38.9123C39.807 40.4295 29.9514 35.8781 20.1336 35.8781Z" fill="#38E1CD"/>
<path d="M39.1394 4.22959L19.2297 22.2034L20.4081 23.7143L40.3177 5.74043L39.1394 4.22959Z" fill="#32655C"/>
<path d="M37.9356 5.72964L57.6579 23.5344L58.8362 22.0235L39.1139 4.21881L37.9356 5.72964Z" fill="#32655C"/>
<path d="M30.9279 10.4284L26.345 14.3729V5.0047H30.9279V10.4284Z" fill="#DBE7E8"/>
<path d="M30.9278 0.567289C29.8476 1.32716 29.0946 3.52567 29.0946 3.52567C29.0946 3.52567 31.186 3.67325 32.3027 3.03261C33.5361 2.325 34.5941 0.0742254 34.5941 0.0742254C34.5941 0.0742254 32.1355 -0.282269 30.9278 0.567289Z" fill="#38E1CD"/>
<path d="M28.1775 2.04655C28.4025 2.57104 28.1775 3.52574 28.1775 3.52574C28.1775 3.52574 27.2162 3.44841 26.8026 3.03268C26.2635 2.49063 26.3443 1.06042 26.3443 1.06042C26.3443 1.06042 27.8421 1.26468 28.1775 2.04655Z" fill="#13675D" fill-opacity="0.83"/>
</g>
<defs>
<filter id="filter0_d_58_79" x="0" y="0" width="88.256" height="46.8867" filterUnits="userSpaceOnUse" color-interpolation-filters="sRGB">
<feFlood flood-opacity="0" result="BackgroundImageFix"/>
<feColorMatrix in="SourceAlpha" type="matrix" values="0 0 0 0 0 0 0 0 0 0 0 0 0 0 0 0 0 0 127 0" result="hardAlpha"/>
<feOffset dx="3" dy="3"/>
<feGaussianBlur stdDeviation="1.5"/>
<feComposite in2="hardAlpha" operator="out"/>
<feColorMatrix type="matrix" values="0 0 0 0 0 0 0 0 0 0 0 0 0 0 0 0 0 0 0.25 0"/>
<feBlend mode="normal" in2="BackgroundImageFix" result="effect1_dropShadow_58_79"/>
<feBlend mode="normal" in="SourceGraphic" in2="effect1_dropShadow_58_79" result="shape"/>
</filter>
</defs>
</svg>
