<svg width="33" height="19" viewBox="0 0 33 19" fill="none" xmlns="http://www.w3.org/2000/svg">
<ellipse cx="15.8929" cy="6.49992" rx="8.82143" ry="6.16667" fill="#8BFFF1"/>
<path d="M16.1601 10.282L14.3601 7.14198V6.40198H14.9601C15.2001 6.40198 15.4101 6.36865 15.5901 6.30198C15.7768 6.22865 15.9301 6.12532 16.0501 5.99198C16.1768 5.85865 16.2634 5.69865 16.3101 5.51198H14.3601V4.77198H16.3001C16.2601 4.59865 16.1901 4.44532 16.0901 4.31198C15.9968 4.17865 15.8701 4.07532 15.7101 4.00198C15.5568 3.92198 15.3701 3.88198 15.1501 3.88198H14.3601V3.14198H18.8701V3.88198H17.3001C17.4134 4.00865 17.5068 4.14532 17.5801 4.29198C17.6601 4.43865 17.7134 4.59865 17.7401 4.77198H18.8701V5.51198H17.7601C17.6934 6.00532 17.5034 6.39198 17.1901 6.67198C16.8768 6.94532 16.4734 7.13198 15.9801 7.23198L17.9401 10.282H16.1601Z" fill="black"/>
</svg>
