<?xml version="1.0" encoding="utf-8"?>
<!-- Svg Vector Icons : http://www.onlinewebfonts.com/icon -->
<!DOCTYPE svg PUBLIC "-//W3C//DTD SVG 1.1//EN" "http://www.w3.org/Graphics/SVG/1.1/DTD/svg11.dtd">
<svg version="1.1" xmlns="http://www.w3.org/2000/svg" xmlns:xlink="http://www.w3.org/1999/xlink" x="0px" y="0px" viewBox="0 0 256 256" enable-background="new 0 0 256 256" xml:space="preserve">
<metadata> Svg Vector Icons : http://www.onlinewebfonts.com/icon </metadata>
<g><g><path fill="white" d="M43.7,165.9H26.8c-9.3,0-16.8-7.5-16.8-16.8V39.4c0-9.3,7.5-16.8,16.8-16.8h160.3c9.3,0,16.8,7.5,16.8,16.8v109.7c0,9.3-7.5,16.8-16.8,16.8H85.8L43.7,208V165.9z M29.2,34.5c-2.2,0-4.9,0.1-6,1c-0.5,0.4-1.2,1.4-1.2,5v107.9c0,3.6,0.7,4.6,1.2,5c1.1,0.8,3.7,1,6,1h26.3v26L82,154h101.3c2.8,0,7.9-3,7.9-5.6V40.1c0-2.3-0.3-3.7-1-4.4c-0.8-0.8-2.7-1.2-5.5-1.2H29.2z"/><path fill="white" d="M170.3,191.3H94.4v-12.3h79.9l25.4,25.2l0-25.6l29.1-0.1c1.3-0.1,2.9-0.6,3.3-0.9l0,0c1-1.3,1-2.6,1-2.8v-0.1v0l0.2-110.3v-0.1c0-0.4-0.1-1.4-0.4-1.9l-0.1-0.2l-0.1-0.2c-0.8-1.6-2.9-1.7-3.5-1.7c-0.1,0-0.1,0-0.1,0h-0.1H229l-16.5,0.2V48h16.8c9.3,0,16.8,7.5,16.8,16.8v109.7c0,9.3-7.5,16.8-16.8,16.8h-17v42.1L170.3,191.3z"/><path fill="white" d="M53.9,90.8c0,2.8,1.1,5.5,3.1,7.5c2,2,4.7,3.1,7.5,3.1s5.5-1.1,7.5-3.1c2-2,3.1-4.7,3.1-7.5s-1.1-5.5-3.1-7.5c-2-2-4.7-3.1-7.5-3.1s-5.5,1.1-7.5,3.1S53.9,88,53.9,90.8L53.9,90.8z"/><path fill="white" d="M96.1,90.8c0,2.8,1.1,5.5,3.1,7.5c2,2,4.7,3.1,7.5,3.1c2.8,0,5.5-1.1,7.5-3.1c2-2,3.1-4.7,3.1-7.5s-1.1-5.5-3.1-7.5s-4.7-3.1-7.5-3.1c-2.8,0-5.5,1.1-7.5,3.1C97.2,85.3,96.1,88,96.1,90.8L96.1,90.8z"/><path fill="white" d="M138.3,91c0,2.7,1.1,5.5,3.1,7.5c2,2,4.7,3.1,7.5,3.1c2.7,0,5.5-1.1,7.5-3.1c2-2,3.1-4.7,3.1-7.5c0-2.8-1.1-5.5-3.1-7.5c-2-2-4.7-3.1-7.5-3.1s-5.5,1.1-7.5,3.1C139.4,85.5,138.3,88.2,138.3,91L138.3,91z"/></g></g>
</svg>