<svg width="23" height="21" viewBox="0 0 23 21" fill="none" xmlns="http://www.w3.org/2000/svg">
<path fill-rule="evenodd" clip-rule="evenodd" d="M10.2273 0.435791C4.77618 0.435791 0.357178 3.99348 0.357178 7.55118C0.357178 11.1089 3.98363 14.6666 12.2013 14.6666C20.419 14.6666 12.8643 14.4711 14.0363 14.1174C17.5963 13.0429 20.0974 10.5076 20.0974 7.55118C20.0974 3.62146 15.6784 0.435791 10.2273 0.435791ZM4.30523 7.55118C4.30523 5.19334 6.95663 3.28194 10.2273 3.28194C13.498 3.28194 16.1494 5.19334 16.1494 7.55118C16.1494 9.90901 13.498 11.8204 10.2273 11.8204C6.95663 11.8204 4.30523 9.90901 4.30523 7.55118Z" fill="white"/>
<path d="M14.0363 14.1174C12.8643 14.4711 20.419 14.6666 12.2013 14.6666L18.1234 20.3589L22.0715 18.9358L16.1494 13.244L14.0363 14.1174Z" fill="white"/>
</svg>
